<svg xmlns="http://www.w3.org/2000/svg" width="512" height="512" viewBox="0 0 512 512">
  <rect width="512" height="512" fill="#3b82f6"/>
  <g transform="translate(256, 256)" fill="none" stroke="white" stroke-width="20" stroke-linecap="round" stroke-linejoin="round">
    <rect x="-92" y="-92" width="184" height="184" rx="15"/>
    <rect x="-51" y="-51" width="102" height="102" rx="10"/>
    <line x1="-51" y1="-92" x2="-51" y2="-133"/>
    <line x1="0" y1="-92" x2="0" y2="-133"/>
    <line x1="51" y1="-92" x2="51" y2="-133"/>
    <line x1="-51" y1="92" x2="-51" y2="133"/>
    <line x1="0" y1="92" x2="0" y2="133"/>
    <line x1="51" y1="92" x2="51" y2="133"/>
    <line x1="-92" y1="-51" x2="-133" y2="-51"/>
    <line x1="-92" y1="0" x2="-133" y2="0"/>
    <line x1="-92" y1="51" x2="-133" y2="51"/>
    <line x1="92" y1="-51" x2="133" y2="-51"/>
    <line x1="92" y1="0" x2="133" y2="0"/>
    <line x1="92" y1="51" x2="133" y2="51"/>
  </g>
</svg>
