<svg xmlns="http://www.w3.org/2000/svg" width="192" height="192" viewBox="0 0 192 192">
  <rect width="192" height="192" rx="23" fill="#3b82f6"/>
  <g transform="translate(96, 96)" fill="none" stroke="white" stroke-width="7.68" stroke-linecap="round" stroke-linejoin="round">
    <!-- Chip/CPU icon -->
    <rect x="-34.56" y="-34.56" width="69.12" height="69.12" rx="5.76"/>
    <rect x="-19.200000000000003" y="-19.200000000000003" width="38.400000000000006" height="38.400000000000006" rx="3.84"/>
    <!-- Pins -->
    <line x1="-19.200000000000003" y1="-34.56" x2="-19.200000000000003" y2="-49.92"/>
    <line x1="0" y1="-34.56" x2="0" y2="-49.92"/>
    <line x1="19.200000000000003" y1="-34.56" x2="19.200000000000003" y2="-49.92"/>
    <line x1="-19.200000000000003" y1="34.56" x2="-19.200000000000003" y2="49.92"/>
    <line x1="0" y1="34.56" x2="0" y2="49.92"/>
    <line x1="19.200000000000003" y1="34.56" x2="19.200000000000003" y2="49.92"/>
    <line x1="-34.56" y1="-19.200000000000003" x2="-49.92" y2="-19.200000000000003"/>
    <line x1="-34.56" y1="0" x2="-49.92" y2="0"/>
    <line x1="-34.56" y1="19.200000000000003" x2="-49.92" y2="19.200000000000003"/>
    <line x1="34.56" y1="-19.200000000000003" x2="49.92" y2="-19.200000000000003"/>
    <line x1="34.56" y1="0" x2="49.92" y2="0"/>
    <line x1="34.56" y1="19.200000000000003" x2="49.92" y2="19.200000000000003"/>
  </g>
</svg>