<svg xmlns="http://www.w3.org/2000/svg" width="512" height="512" viewBox="0 0 512 512">
  <rect width="512" height="512" rx="61" fill="#3b82f6"/>
  <g transform="translate(256, 256)" fill="none" stroke="white" stroke-width="20.48" stroke-linecap="round" stroke-linejoin="round">
    <!-- Chip/CPU icon -->
    <rect x="-92.16" y="-92.16" width="184.32" height="184.32" rx="15.36"/>
    <rect x="-51.2" y="-51.2" width="102.4" height="102.4" rx="10.24"/>
    <!-- Pins -->
    <line x1="-51.2" y1="-92.16" x2="-51.2" y2="-133.12"/>
    <line x1="0" y1="-92.16" x2="0" y2="-133.12"/>
    <line x1="51.2" y1="-92.16" x2="51.2" y2="-133.12"/>
    <line x1="-51.2" y1="92.16" x2="-51.2" y2="133.12"/>
    <line x1="0" y1="92.16" x2="0" y2="133.12"/>
    <line x1="51.2" y1="92.16" x2="51.2" y2="133.12"/>
    <line x1="-92.16" y1="-51.2" x2="-133.12" y2="-51.2"/>
    <line x1="-92.16" y1="0" x2="-133.12" y2="0"/>
    <line x1="-92.16" y1="51.2" x2="-133.12" y2="51.2"/>
    <line x1="92.16" y1="-51.2" x2="133.12" y2="-51.2"/>
    <line x1="92.16" y1="0" x2="133.12" y2="0"/>
    <line x1="92.16" y1="51.2" x2="133.12" y2="51.2"/>
  </g>
</svg>